<?xml version="1.0" encoding="UTF-8"?>
<svg version="1.1" xmlns="http://www.w3.org/2000/svg" width="512" height="512" viewBox="0 0 512 512">
  <path d="M0 0 C9.32281779 7.86135004 18.35267141 16.07908905 26.87280273 24.8059082 C27.73905273 25.6721582 28.60530273 26.5384082 29.49780273 27.4309082 C31.95613607 29.88924154 34.4144694 32.34757487 36.87280273 34.8059082 C40.12582069 33.4127679 41.90666489 31.85630665 44.12280273 29.1184082 C47.12223575 25.56897255 50.30867035 22.57740536 53.84936523 19.5793457 C55.90089245 17.78128903 57.78799814 15.8901656 59.68530273 13.9309082 C63.54455193 10.01899869 67.68888663 6.58000535 71.97436523 3.14575195 C74.86338467 0.81351119 77.67751543 -1.59196226 80.49780273 -4.0065918 C107.07888183 -26.1517599 142.26609528 -49.02676338 178.30004883 -45.98950195 C200.51460044 -43.43272427 220.19423927 -36.4223454 236.87280273 -21.1940918 C237.9652832 -20.20602539 237.9652832 -20.20602539 239.07983398 -19.19799805 C255.92319324 -3.19197597 265.17412406 20.52384072 266.09545898 43.47387695 C266.81810404 72.25363634 258.07107776 96.68755119 238.18530273 117.8684082 C220.11602985 135.304905 195.69462833 143.16612645 170.93530273 144.1184082 C118.97431368 142.58008945 73.10858561 97.54598248 38.87280273 62.8059082 C35.41936103 64.28699693 33.22358948 66.2341252 30.60717773 68.91137695 C29.79893555 69.73057617 28.99069336 70.54977539 28.15795898 71.39379883 C27.32135742 72.25166992 26.48475586 73.10954102 25.62280273 73.9934082 C19.89120365 79.8464776 14.1149415 85.49890546 7.87280273 90.8059082 C6.39166992 92.10915039 6.39166992 92.10915039 4.88061523 93.4387207 C-24.21373174 118.59074424 -62.67598133 146.52906227 -103.12719727 143.8059082 C-126.49066202 142.05573189 -146.72600401 132.23237294 -163.12719727 115.8059082 C-164.08819336 114.95125977 -164.08819336 114.95125977 -165.06860352 114.0793457 C-175.89856991 104.27960813 -182.50691125 90.4100837 -187.12719727 76.8059082 C-187.48813477 75.74887695 -187.84907227 74.6918457 -188.22094727 73.6027832 C-194.40762888 50.80371577 -190.85915004 24.60061578 -180.12719727 3.8059082 C-175.37740122 -4.37820126 -169.64863619 -11.37148518 -163.12719727 -18.1940918 C-162.51489258 -18.88116211 -161.90258789 -19.56823242 -161.27172852 -20.27612305 C-113.24794432 -72.19096012 -43.74022896 -36.35276189 0 0 Z M-130.12719727 -21.1940918 C-131.11204102 -20.70166992 -132.09688477 -20.20924805 -133.11157227 -19.7019043 C-152.42084618 -9.24688293 -164.86303667 7.8912727 -171.50219727 28.6184082 C-176.94002246 50.66673304 -172.72786867 72.57921298 -161.12719727 91.8059082 C-158.67750703 95.37079076 -156.04034269 98.6127672 -153.12719727 101.8059082 C-152.6102832 102.4143457 -152.09336914 103.0227832 -151.56079102 103.6496582 C-139.59625388 116.843634 -119.74164342 125.70915967 -102.12719727 126.8059082 C-101.32024414 126.85875977 -100.51329102 126.91161133 -99.68188477 126.96606445 C-60.88972485 128.26667623 -24.20918145 96.02286203 2.87280273 71.8059082 C4.72550612 70.02998351 6.52582576 68.22373017 8.30639648 66.3762207 C10.06761132 64.61061381 11.91903179 62.99366223 13.81030273 61.3684082 C18.04529876 57.72183629 21.96974258 53.80239267 25.87280273 49.8059082 C24.45287724 46.57542072 22.73660887 44.42348332 20.23999023 41.94262695 C19.15331055 40.85884766 19.15331055 40.85884766 18.04467773 39.75317383 C17.28670898 39.00745117 16.52874023 38.26172852 15.74780273 37.4934082 C15.01303711 36.75928711 14.27827148 36.02516602 13.52124023 35.26879883 C9.39106434 31.17134439 5.16973205 27.23202166 0.76245117 23.43457031 C-1.01803931 21.89998995 -2.77266997 20.34096441 -4.52172852 18.77075195 C-29.74046289 -3.67572324 -63.38608823 -29.84808559 -98.90844727 -29.40893555 C-109.94273691 -28.6724235 -120.2202853 -26.14754778 -130.12719727 -21.1940918 Z M80.87280273 18.8059082 C79.58593951 19.9363996 78.29440313 21.06159806 76.99780273 22.1809082 C67.60560187 30.38254839 58.6108418 38.91306136 49.87280273 47.8059082 C51.5383594 52.13846384 54.74714844 54.94144517 57.99780273 58.1184082 C58.58674316 58.70017822 59.17568359 59.28194824 59.7824707 59.88134766 C63.37590578 63.40816453 67.03147154 66.82612321 70.87280273 70.08325195 C73.30669405 72.17963099 75.64414699 74.36988201 77.99780273 76.5559082 C84.35275102 82.33551138 91.02212988 87.62791578 97.87280273 92.8059082 C98.90002441 93.58587158 98.90002441 93.58587158 99.94799805 94.3815918 C123.19988084 111.928689 151.24025868 130.23974891 181.72045898 126.30981445 C190.2996187 124.93747958 198.06146649 122.71157633 205.87280273 118.8059082 C206.85764648 118.31348633 207.84249023 117.82106445 208.85717773 117.3137207 C228.16645165 106.85869933 240.60864214 89.72054371 247.24780273 68.9934082 C252.68562793 46.94508337 248.47347414 25.03260343 236.87280273 5.8059082 C234.42311249 2.24102564 231.78594816 -1.0009508 228.87280273 -4.1940918 C228.35588867 -4.8025293 227.83897461 -5.4109668 227.30639648 -6.0378418 C215.34086587 -19.23291315 195.48798978 -28.0952238 177.87280273 -29.1940918 C177.07745117 -29.24694336 176.28209961 -29.29979492 175.46264648 -29.35424805 C140.24747984 -30.54710347 105.31586385 -3.99280153 80.87280273 18.8059082 Z" 
        fill="#ffffff" 
        transform="translate(218.127197265625,207.194091796875)"/>
  
  <!-- White dot at the top of the line -->
  <circle cx="396.13" cy="171.2" r="25" fill="#000000"/>
</svg>