<?xml version="1.0" encoding="UTF-8"?>
<svg version="1.1" xmlns="http://www.w3.org/2000/svg" width="567" height="440">
<path d="M0 0 C1.98 0 3.96 0 6 0 C6.00146656 0.56322338 6.00293312 1.12644676 6.00444412 1.70673752 C6.04149552 15.41111125 6.10074075 29.11523424 6.18390274 42.81940842 C6.22344728 49.44667313 6.25560163 56.07380357 6.27099609 62.70117188 C6.28611654 69.09444897 6.32048038 75.48735711 6.36830902 81.88047028 C6.38317042 84.32212369 6.39104372 86.76382976 6.39188385 89.20552826 C6.39424087 92.62016857 6.42121998 96.03377868 6.45410156 99.44824219 C6.4490712 100.46244232 6.44404083 101.47664246 6.43885803 102.52157593 C6.417641 107.94228869 6.417641 107.94228869 8.98101807 112.53852844 C9.6472821 113.02081406 10.31354614 113.50309967 11 114 C11.84960938 115.93530273 11.84960938 115.93530273 12.34375 117.93359375 C12.53839844 118.66513672 12.73304688 119.39667969 12.93359375 120.15039062 C13.12050781 120.90513672 13.30742187 121.65988281 13.5 122.4375 C15.38448506 130.00793136 17.76243159 134.61017974 24.25 139.3125 C31.39635997 144.73387653 38.42349067 151.18179656 43 159 C43 159.99 43 160.98 43 162 C43.66 162 44.32 162 45 162 C45.3125 164.8125 45.3125 164.8125 45 168 C35.27693522 177.05250859 15.60237901 175.20503728 3.375 175.1875 C2.31017899 175.18709213 2.31017899 175.18709213 1.22384644 175.18667603 C-30.84282847 175.13008591 -30.84282847 175.13008591 -39.79296875 168.71484375 C-41 167 -41 167 -40.99609375 164.76953125 C-39.61727996 160.93588821 -37.46169451 157.95484624 -35.0625 154.6875 C-34.60681641 154.04232422 -34.15113281 153.39714844 -33.68164062 152.73242188 C-32.510905 151.11259001 -31.26102508 149.55057825 -30 148 C-29.34 148 -28.68 148 -28 148 C-28 147.34 -28 146.68 -28 146 C-26.5390625 144.4921875 -26.5390625 144.4921875 -24.625 142.875 C-23.99851562 142.33617187 -23.37203125 141.79734375 -22.7265625 141.2421875 C-21 140 -21 140 -19 140 C-19 139.34 -19 138.68 -19 138 C-18.0925 137.319375 -17.185 136.63875 -16.25 135.9375 C-10.99580369 131.7118374 -9.2330402 125.69334057 -8.0625 119.25 C-7.22140232 114.92327228 -5.5375608 112.74160962 -2 110 C-1.34 110 -0.68 110 0 110 C0 73.7 0 37.4 0 0 Z " fill="#FAF2D9" transform="translate(287,0)"/>
<path d="M0 0 C1.98 0 3.96 0 6 0 C6.00146656 0.56322338 6.00293312 1.12644676 6.00444412 1.70673752 C6.04149552 15.41111125 6.10074075 29.11523424 6.18390274 42.81940842 C6.22344728 49.44667313 6.25560163 56.07380357 6.27099609 62.70117188 C6.28611654 69.09444897 6.32048038 75.48735711 6.36830902 81.88047028 C6.38317042 84.32212369 6.39104372 86.76382976 6.39188385 89.20552826 C6.39424087 92.62016857 6.42121998 96.03377868 6.45410156 99.44824219 C6.4490712 100.46244232 6.44404083 101.47664246 6.43885803 102.52157593 C6.417641 107.94228869 6.417641 107.94228869 8.98101807 112.53852844 C9.6472821 113.02081406 10.31354614 113.50309967 11 114 C11.84960938 115.93530273 11.84960938 115.93530273 12.34375 117.93359375 C12.53839844 118.66513672 12.73304688 119.39667969 12.93359375 120.15039062 C13.12050781 120.90513672 13.30742187 121.65988281 13.5 122.4375 C15.38448506 130.00793136 17.76243159 134.61017974 24.25 139.3125 C31.63617817 144.92502354 37.49257608 150.85196445 42 159 C41.34 159.33 40.68 159.66 40 160 C39.25556641 158.91332031 39.25556641 158.91332031 38.49609375 157.8046875 C34.44227338 152.03549343 30.58848752 147.30779247 25 143 C25.70125 144.0725 26.4025 145.145 27.125 146.25 C28.2421875 148.17578125 28.2421875 148.17578125 29 150 C28.25 152.4375 28.25 152.4375 27 154 C26.01 152.68 25.02 151.36 24 150 C23.67 150.66 23.34 151.32 23 152 C21.41532272 151.71572583 19.8322943 151.42225182 18.25 151.125 C17.36828125 150.96257812 16.4865625 150.80015625 15.578125 150.6328125 C13 150 13 150 10.9375 148.9375 C8.6989571 147.85433408 7.21785633 147.79273812 4.75 147.875 C3.5125 147.91625 2.275 147.9575 1 148 C1 147.34 1 146.68 1 146 C0.18208984 146.2165625 0.18208984 146.2165625 -0.65234375 146.4375 C-5.53259812 147.63879338 -9.93273215 148.18314601 -14.95703125 147.97265625 C-18.79443609 148.02401731 -20.8064661 148.86694544 -24 151.0625 C-27 153 -27 153 -31 153 C-31 154.32 -31 155.64 -31 157 C-33.97 157.99 -33.97 157.99 -37 159 C-32.3627685 150.6849642 -32.3627685 150.6849642 -30 148 C-29.34 148 -28.68 148 -28 148 C-28 147.34 -28 146.68 -28 146 C-26.5390625 144.4921875 -26.5390625 144.4921875 -24.625 142.875 C-23.99851562 142.33617187 -23.37203125 141.79734375 -22.7265625 141.2421875 C-21 140 -21 140 -19 140 C-19 139.34 -19 138.68 -19 138 C-18.0925 137.319375 -17.185 136.63875 -16.25 135.9375 C-10.99580369 131.7118374 -9.2330402 125.69334057 -8.0625 119.25 C-7.22140232 114.92327228 -5.5375608 112.74160962 -2 110 C-1.34 110 -0.68 110 0 110 C0 73.7 0 37.4 0 0 Z " fill="#6E829B" transform="translate(287,0)"/>
<path d="M0 0 C3.78133733 1.53320739 5.89443552 3.83223272 8.5625 6.875 C9.32691406 7.73867187 10.09132813 8.60234375 10.87890625 9.4921875 C13 12 13 12 14.65234375 14.3203125 C15.09707031 14.87460938 15.54179687 15.42890625 16 16 C16.66 16 17.32 16 18 16 C18 16.99 18 17.98 18 19 C18.66 19 19.32 19 20 19 C20.3125 21.8125 20.3125 21.8125 20 25 C16.41172418 28.1533333 12.65176347 28.54394476 8 29 C9 27 9 27 10.8125 26.2890625 C12.26939345 25.84679127 13.72773962 25.40927718 15.1875 24.9765625 C17.21206474 24.14677637 17.21206474 24.14677637 17.75 21.8984375 C17.8325 21.27195313 17.915 20.64546875 18 20 C16.39771791 19.53512125 14.79301541 19.07858617 13.1875 18.625 C12.29417969 18.36976563 11.40085937 18.11453125 10.48046875 17.8515625 C-6.70602749 13.64656118 -24.40054581 13.0675273 -41.9375 15.1875 C-43.38225708 15.357052 -43.38225708 15.357052 -44.85620117 15.5300293 C-51.35758044 16.43203678 -57.02379619 18.30434027 -63 21 C-62.77193712 22.95702552 -62.77193712 22.95702552 -62 25 C-58.51202512 26.79271391 -58.51202512 26.79271391 -55 28 C-55.66 28.33 -56.32 28.66 -57 29 C-63.4 26.6 -63.4 26.6 -66 24 C-65.64700993 20.55834679 -64.95418308 18.93127462 -63 16 C-59.375 14.8125 -59.375 14.8125 -56 14 C-56 12.68 -56 11.36 -56 10 C-54.948125 9.566875 -53.89625 9.13375 -52.8125 8.6875 C-50.45270359 7.68434768 -48.40094175 6.64056505 -46.1875 5.3125 C-43.64139748 3.78483849 -42.59428371 3.99096528 -39.6875 4.03515625 C-38.3571875 4.04869141 -38.3571875 4.04869141 -37 4.0625 C-35.6696875 4.07990234 -35.6696875 4.07990234 -34.3125 4.09765625 C-31.97268826 4.15679312 -31.97268826 4.15679312 -30 3 C-28.00039988 2.960008 -25.99952758 2.95653201 -24 3 C-24 3.66 -24 4.32 -24 5 C-23.38511719 4.90460938 -22.77023437 4.80921875 -22.13671875 4.7109375 C-21.32847656 4.60007813 -20.52023437 4.48921875 -19.6875 4.375 C-18.48673828 4.20097656 -18.48673828 4.20097656 -17.26171875 4.0234375 C-15 4 -15 4 -12 6 C-10.28555111 6.43738696 -8.55332216 6.80848688 -6.8125 7.125 C-5.46091797 7.37636719 -5.46091797 7.37636719 -4.08203125 7.6328125 C-3.05142578 7.81457031 -3.05142578 7.81457031 -2 8 C-1.67 7.01 -1.34 6.02 -1 5 C-0.01 5.99 0.98 6.98 2 8 C2 4.79604584 1.25664978 2.90600261 0 0 Z " fill="#9BABC2" transform="translate(312,143)"/>
<path d="M0 0 C1.98 0 3.96 0 6 0 C6 36.63 6 73.26 6 111 C4.02 111 2.04 111 0 111 C0 74.37 0 37.74 0 0 Z " fill="#080803" transform="translate(287,0)"/>
<path d="M0 0 C0.74378906 -0.00128906 1.48757813 -0.00257812 2.25390625 -0.00390625 C5.40739485 0.81408274 6.47169869 1.95505461 8.4375 4.5625 C9.5102134 7.31678388 10.22762416 10.13357033 10.9375 13 C12.84540197 20.66450275 15.69759456 25.02759118 21.4375 30.5625 C20.4475 30.5625 19.4575 30.5625 18.4375 30.5625 C18.1075 31.5525 17.7775 32.5425 17.4375 33.5625 C16.9425 33.0675 16.9425 33.0675 16.4375 32.5625 C16.1075 34.2125 15.7775 35.8625 15.4375 37.5625 C8.85918675 34.77936747 8.85918675 34.77936747 6.25 33.4375 C4.46960818 32.46847525 4.46960818 32.46847525 2.46484375 32.26171875 C0.4375 31.5625 0.4375 31.5625 -0.828125 29.71484375 C-1.15296875 28.98394531 -1.4778125 28.25304687 -1.8125 27.5 C-2.14765625 26.76652344 -2.4828125 26.03304687 -2.828125 25.27734375 C-3.07046875 24.71144531 -3.3128125 24.14554688 -3.5625 23.5625 C-2.9025 23.2325 -2.2425 22.9025 -1.5625 22.5625 C-1.5625 21.2425 -1.5625 19.9225 -1.5625 18.5625 C-2.614375 18.871875 -3.66625 19.18125 -4.75 19.5 C-7.69354763 20.32033295 -10.56768996 20.98836543 -13.5625 21.5625 C-13.02213522 18.9935032 -12.4564528 16.434729 -11.875 13.875 C-11.72611328 13.15376953 -11.57722656 12.43253906 -11.42382812 11.68945312 C-9.98854019 5.52615787 -7.19025389 -0.21258142 0 0 Z " fill="#4A5365" transform="translate(289.5625,109.4375)"/>
<path d="M0 0 C3.78133733 1.53320739 5.89443552 3.83223272 8.5625 6.875 C9.32691406 7.73867187 10.09132813 8.60234375 10.87890625 9.4921875 C13 12 13 12 14.65234375 14.3203125 C15.09707031 14.87460938 15.54179687 15.42890625 16 16 C16.66 16 17.32 16 18 16 C18 16.99 18 17.98 18 19 C18.66 19 19.32 19 20 19 C20.3125 21.8125 20.3125 21.8125 20 25 C16.41172418 28.1533333 12.65176347 28.54394476 8 29 C9 27 9 27 10.8125 26.2890625 C12.26939345 25.84679127 13.72773962 25.40927718 15.1875 24.9765625 C17.21206474 24.14677637 17.21206474 24.14677637 17.75 21.8984375 C17.8325 21.27195313 17.915 20.64546875 18 20 C9.41009753 17.50776524 0.86652081 15.16709985 -8.109375 14.796875 C-8.82456299 14.76609863 -9.53975098 14.73532227 -10.27661133 14.70361328 C-11.68995829 14.65219562 -13.10409406 14.61858668 -14.51831055 14.60498047 C-17.89778832 14.49234512 -19.73532399 14.19819341 -22.47265625 12.1484375 C-24 10 -24 10 -24 7 C-23.34 7 -22.68 7 -22 7 C-22 6.34 -22 5.68 -22 5 C-15.375 3.75 -15.375 3.75 -12 6 C-10.28555111 6.43738696 -8.55332216 6.80848688 -6.8125 7.125 C-5.46091797 7.37636719 -5.46091797 7.37636719 -4.08203125 7.6328125 C-3.39496094 7.75398437 -2.70789063 7.87515625 -2 8 C-1.67 7.01 -1.34 6.02 -1 5 C-0.01 5.99 0.98 6.98 2 8 C2 4.79604584 1.25664978 2.90600261 0 0 Z " fill="#A9A294" transform="translate(312,143)"/>
<path d="M0 0 C2.41712609 2.14200942 3.45537753 3.71319512 4.24609375 6.8359375 C4.44396484 7.57070312 4.64183594 8.30546875 4.84570312 9.0625 C5.23811812 10.5958972 5.62876307 12.12974853 6.01757812 13.6640625 C7.81708746 20.3263236 11.04786239 24.22472444 16 29 C15.01 29 14.02 29 13 29 C12.67 29.99 12.34 30.98 12 32 C11.67 31.67 11.34 31.34 11 31 C10.67 32.65 10.34 34.3 10 36 C3.42168675 33.21686747 3.42168675 33.21686747 0.8125 31.875 C-0.96789182 30.90597525 -0.96789182 30.90597525 -2.97265625 30.69921875 C-5 30 -5 30 -6.265625 28.15234375 C-6.59046875 27.42144531 -6.9153125 26.69054687 -7.25 25.9375 C-7.75273437 24.83728516 -7.75273437 24.83728516 -8.265625 23.71484375 C-8.50796875 23.14894531 -8.7503125 22.58304688 -9 22 C-8.34 21.67 -7.68 21.34 -7 21 C-7 19.68 -7 18.36 -7 17 C-6.34 17 -5.68 17 -5 17 C-4.87625 17.804375 -4.7525 18.60875 -4.625 19.4375 C-4.41875 20.283125 -4.2125 21.12875 -4 22 C-3.34 22.33 -2.68 22.66 -2 23 C-2 23.66 -2 24.32 -2 25 C-0.68 24.67 0.64 24.34 2 24 C1.67 21.36 1.34 18.72 1 16 C0.34 16 -0.32 16 -1 16 C-1.33 11.05 -1.66 6.1 -2 1 C-1.34 0.67 -0.68 0.34 0 0 Z " fill="#75695D" transform="translate(295,111)"/>
<path d="M0 0 C5.66160728 1.22223284 8.50054828 2.85791594 12.625 7.125 C13.09719971 7.61202393 13.56939941 8.09904785 14.0559082 8.60083008 C17.69414559 12.44584997 20.46727414 16.37122515 23 21 C22.01 21.495 22.01 21.495 21 22 C20.50371094 21.27554688 20.00742187 20.55109375 19.49609375 19.8046875 C15.44227338 14.03549343 11.58848752 9.30779247 6 5 C6.70125 6.0725 7.4025 7.145 8.125 8.25 C9.2421875 10.17578125 9.2421875 10.17578125 10 12 C9.25 14.4375 9.25 14.4375 8 16 C7.01 14.68 6.02 13.36 5 12 C4.67 12.66 4.34 13.32 4 14 C2.3743193 13.69106068 0.74947252 13.3777305 -0.875 13.0625 C-1.77992188 12.88847656 -2.68484375 12.71445313 -3.6171875 12.53515625 C-6 12 -6 12 -8 11 C-8.33 10.01 -8.66 9.02 -9 8 C-11.31 7.67 -13.62 7.34 -16 7 C-16 6.01 -16 5.02 -16 4 C-13.1875 3.3125 -13.1875 3.3125 -10 3 C-8.4375 4.3125 -8.4375 4.3125 -7 6 C-4.40084462 7.19027984 -4.40084462 7.19027984 -2 8 C-0.74335022 5.09399739 0 3.20395416 0 0 Z " fill="#8A7F76" transform="translate(306,138)"/>
<path d="M0 0 C0.99 0.33 1.98 0.66 3 1 C4.47974337 0.99454975 5.95963659 0.94976543 7.4375 0.875 C10.52521933 0.83476913 11.78427497 0.88424511 14.5625 2.375 C16 4 16 4 16 6 C15.34 6 14.68 6 14 6 C14 5.34 14 4.68 14 4 C13.18208984 4.2165625 13.18208984 4.2165625 12.34765625 4.4375 C7.46740188 5.63879338 3.06726785 6.18314601 -1.95703125 5.97265625 C-5.79443609 6.02401731 -7.8064661 6.86694544 -11 9.0625 C-14 11 -14 11 -18 11 C-18 12.32 -18 13.64 -18 15 C-19.98 15.66 -21.96 16.32 -24 17 C-19.3627685 8.6849642 -19.3627685 8.6849642 -17 6 C-16.34 6 -15.68 6 -15 6 C-15 5.34 -15 4.68 -15 4 C-12.81322293 1.88968367 -11.5064487 1.05134503 -8.45703125 0.7421875 C-7.14798828 0.80792969 -7.14798828 0.80792969 -5.8125 0.875 C-4.20933805 0.94541707 -2.60469705 0.99415411 -1 1 C-0.67 0.67 -0.34 0.34 0 0 Z " fill="#869BB7" transform="translate(274,142)"/>
<path d="M0 0 C1.85772162 0.08984301 3.71247985 0.24611861 5.5625 0.4375 C7.08037109 0.59025391 7.08037109 0.59025391 8.62890625 0.74609375 C9.80259766 0.87177734 9.80259766 0.87177734 11 1 C11.495 2.485 11.495 2.485 12 4 C13.49985609 5.66710346 13.49985609 5.66710346 15 7 C13.77482666 7.12846313 13.77482666 7.12846313 12.52490234 7.25952148 C8.80806864 7.65030884 5.09153442 8.0438769 1.375 8.4375 C0.08980469 8.57220703 -1.19539063 8.70691406 -2.51953125 8.84570312 C-3.76347656 8.97783203 -5.00742187 9.10996094 -6.2890625 9.24609375 C-7.43068848 9.36654053 -8.57231445 9.4869873 -9.74853516 9.61108398 C-13.02165845 9.95745488 -13.02165845 9.95745488 -16.29443359 10.67211914 C-17.18727051 10.78031982 -18.08010742 10.88852051 -19 11 C-19.66 10.34 -20.32 9.68 -21 9 C-17.83759418 6.89172945 -16.49342531 6.66182535 -12.8125 6.375 C-11.91144531 6.30023438 -11.01039063 6.22546875 -10.08203125 6.1484375 C-9.39496094 6.09945312 -8.70789063 6.05046875 -8 6 C-7.67 5.01 -7.34 4.02 -7 3 C-4 1.875 -4 1.875 -1 1 C-0.67 0.67 -0.34 0.34 0 0 Z " fill="#B3BAC2" transform="translate(277,149)"/>
<path d="M0 0 C0.66 0.66 1.32 1.32 2 2 C1.34 2 0.68 2 0 2 C0.165 2.61875 0.33 3.2375 0.5 3.875 C1.20075317 8.25470729 1.07734251 12.57428989 1 17 C1.66 17 2.32 17 3 17 C3.66 19.97 4.32 22.94 5 26 C4.01 26.33 3.02 26.66 2 27 C1.34 26.67 0.68 26.34 0 26 C0 25.34 0 24.68 0 24 C-0.99 23.67 -1.98 23.34 -3 23 C-4.09315246 18.4161086 -4.32282625 13.87488993 -4.5625 9.1875 C-4.60568359 8.39923828 -4.64886719 7.61097656 -4.69335938 6.79882812 C-4.79878321 4.86605785 -4.89983094 2.93304974 -5 1 C-2.625 0.375 -2.625 0.375 0 0 Z " fill="#3F3C3C" transform="translate(293,110)"/>
<path d="M0 0 C1.73813388 0.42663286 3.48988665 0.80076859 5.25 1.125 C6.58804687 1.37636719 6.58804687 1.37636719 7.953125 1.6328125 C8.96632813 1.81457031 8.96632813 1.81457031 10 2 C10.33 1.01 10.66 0.02 11 -1 C11.66 -0.01 12.32 0.98 13 2 C12.67 2.99 12.34 3.98 12 5 C11.34 5 10.68 5 10 5 C10 5.66 10 6.32 10 7 C8.11975607 6.76069623 6.2395277 6.52126949 4.359375 6.28125 C2.78877265 6.09402588 1.21559223 5.92727345 -0.359375 5.78125 C-4.57878956 5.38479494 -8.12900894 4.87306019 -12 3 C-12 2.34 -12 1.68 -12 1 C-11.34 1 -10.68 1 -10 1 C-10 0.34 -10 -0.32 -10 -1 C-5.67138872 -1.98377529 -3.86056758 -1.98705684 0 0 Z " fill="#AC9E91" transform="translate(300,149)"/>
<path d="M0 0 C-0.2475 0.66 -0.495 1.32 -0.75 2 C-1.11662273 6.39947279 0.86707597 9.25498222 3 13 C3.33 13.66 3.66 14.32 4 15 C2.68 14.67 1.36 14.34 0 14 C0 13.34 0 12.68 0 12 C-1.32 12 -2.64 12 -4 12 C-4 11.01 -4 10.02 -4 9 C-5.98 9.33 -7.96 9.66 -10 10 C-10 8.35 -10 6.7 -10 5 C-10.66 5 -11.32 5 -12 5 C-12.33 5.99 -12.66 6.98 -13 8 C-13.33 7.01 -13.66 6.02 -14 5 C-10.05572558 0.43294541 -5.8595807 -0.27253864 0 0 Z " fill="#5E718E" transform="translate(288,128)"/>
<path d="M0 0 C0.66 0 1.32 0 2 0 C2.12375 0.804375 2.2475 1.60875 2.375 2.4375 C2.684375 3.7059375 2.684375 3.7059375 3 5 C3.66 5.33 4.32 5.66 5 6 C5 6.66 5 7.32 5 8 C5.598125 7.835 6.19625 7.67 6.8125 7.5 C9 7 9 7 12 7 C12.99 8.98 13.98 10.96 15 13 C10.9520192 14.34932693 7.22061922 14.81664784 3 14 C0.22735157 10.95008673 -1.37078735 8.08988221 -2 4 C-1.34 4 -0.68 4 0 4 C0 2.68 0 1.36 0 0 Z " fill="#5F5955" transform="translate(288,128)"/>
<path d="M0 0 C0.66 0.33 1.32 0.66 2 1 C2.625 4.0625 2.625 4.0625 3 7 C3.66 7 4.32 7 5 7 C5.33 6.01 5.66 5.02 6 4 C6 4.66 6 5.32 6 6 C6.99 6.33 7.98 6.66 9 7 C9 7.66 9 8.32 9 9 C8.2471875 8.86722656 7.494375 8.73445312 6.71875 8.59765625 C1.71662268 7.76599188 -3.21174798 6.9783198 -8.28515625 6.8203125 C-8.99671875 6.79573975 -9.70828125 6.77116699 -10.44140625 6.74584961 C-11.83291586 6.70757028 -13.22515761 6.68946845 -14.6171875 6.69360352 C-18.44352051 6.58193824 -19.74962467 6.25831116 -22.46484375 3.45703125 C-23.22474609 2.24080078 -23.22474609 2.24080078 -24 1 C-16.3299717 1.4302337 -9.34103058 2.74231361 -2 5 C-2 4.34 -2 3.68 -2 3 C-1.34 3 -0.68 3 0 3 C0 2.01 0 1.02 0 0 Z " fill="#B9AC96" transform="translate(312,151)"/>
<path d="M0 0 C2.95723437 2.46713092 3.77066694 4.75500782 4.75 8.4375 C5.01296875 9.38496094 5.2759375 10.33242187 5.546875 11.30859375 C6.268725 15.59613384 5.3990102 17.4014847 3 21 C3 20.34 3 19.68 3 19 C2.34 19 1.68 19 1 19 C1 18.01 1 17.02 1 16 C0.34 16 -0.32 16 -1 16 C-1.33 11.05 -1.66 6.1 -2 1 C-1.34 0.67 -0.68 0.34 0 0 Z " fill="#64513A" transform="translate(295,111)"/>
<path d="M0 0 C0.99 0.33 1.98 0.66 3 1 C3 5.95 3 10.9 3 16 C-0.96 16.495 -0.96 16.495 -5 17 C-4.01 15.515 -4.01 15.515 -3 14 C-2.90270222 11.46602731 -3.06620252 9.00262747 -3.22265625 6.47265625 C-2.95342019 3.48271891 -1.96570511 2.21205979 0 0 Z " fill="#515F75" transform="translate(285,110)"/>
<path d="M0 0 C0 0.99 0 1.98 0 3 C-1.175625 3.3403125 -1.175625 3.3403125 -2.375 3.6875 C-5.21875 4.78125 -5.21875 4.78125 -6.3125 7.625 C-6.6528125 8.800625 -6.6528125 8.800625 -7 10 C-8.32 10 -9.64 10 -11 10 C-11 11.32 -11 12.64 -11 14 C-12.98 14.66 -14.96 15.32 -17 16 C-12.3627685 7.6849642 -12.3627685 7.6849642 -10 5 C-9.34 5 -8.68 5 -8 5 C-8 4.34 -8 3.68 -8 3 C-5.65966534 -0.20256322 -3.8395009 -0.31131088 0 0 Z " fill="#8290A0" transform="translate(267,143)"/>
<path d="M0 0 C1.41805831 0.28482368 2.83440379 0.57818144 4.25 0.875 C5.03890625 1.03742188 5.8278125 1.19984375 6.640625 1.3671875 C8.96831144 1.99150075 10.89031952 2.84838542 13 4 C12.8125 6.375 12.8125 6.375 12 9 C9.4375 10.3125 9.4375 10.3125 7 11 C3 6.5 3 6.5 3 2 C2.01 1.67 1.02 1.34 0 1 C0 0.67 0 0.34 0 0 Z " fill="#F8ECC0" transform="translate(317,159)"/>
<path d="M0 0 C0.77601563 0.06445312 1.55203125 0.12890625 2.3515625 0.1953125 C4.375 0.875 4.375 0.875 5.421875 2.8828125 C5.73640625 3.54023438 6.0509375 4.19765625 6.375 4.875 C9.93706661 5.69370185 9.93706661 5.69370185 13.375 5.875 C13.375 6.865 13.375 7.855 13.375 8.875 C10.125 9.125 10.125 9.125 6.375 8.875 C5.776875 8.215 5.17875 7.555 4.5625 6.875 C1.3767706 3.96233312 -1.40941403 4.56569883 -5.578125 4.734375 C-6.25359375 4.78078125 -6.9290625 4.8271875 -7.625 4.875 C-7.955 3.885 -8.285 2.895 -8.625 1.875 C-5.55194042 0.06484162 -3.54205555 -0.36723653 0 0 Z " fill="#74849C" transform="translate(283.625,139.125)"/>
<path d="M0 0 C-1.423125 0.61875 -1.423125 0.61875 -2.875 1.25 C-7.12554364 3.63030444 -7.51808598 5.55425794 -9 10 C-11.4375 9.25 -11.4375 9.25 -14 8 C-14.8125 5.875 -14.8125 5.875 -15 4 C-5.38622754 -1.73128743 -5.38622754 -1.73128743 0 0 Z " fill="#F5EDC8" transform="translate(263,160)"/>
<path d="M0 0 C3.81684226 1.55500981 6.19195732 4.03595495 9 7 C8.67 7.99 8.34 8.98 8 10 C8 11.32 8 12.64 8 14 C6.35 14.33 4.7 14.66 3 15 C2 7.25 2 7.25 2 5 C1.36096883 3.32254318 0.69658363 1.65438613 0 0 Z " fill="#9B9DA7" transform="translate(312,143)"/>
<path d="M0 0 C-2.70784994 0.33772739 -5.41616996 0.67030687 -8.125 1 C-8.88554687 1.09539062 -9.64609375 1.19078125 -10.4296875 1.2890625 C-14.64909952 1.79830188 -18.74004344 2.10888068 -23 2 C-23.33 1.34 -23.66 0.68 -24 0 C-8.09889299 -4.23232472 -8.09889299 -4.23232472 0 0 Z " fill="#C4C5C4" transform="translate(292,156)"/>
<path d="M0 0 C1.57158878 0.42151885 3.15629082 0.7968834 4.75 1.125 C5.54921875 1.29257813 6.3484375 1.46015625 7.171875 1.6328125 C7.77515625 1.75398437 8.3784375 1.87515625 9 2 C9 2.99 9 3.98 9 5 C8.443125 4.855625 7.88625 4.71125 7.3125 4.5625 C2.04253363 3.28061629 -2.58881397 2.90506691 -8 3 C-8.66 2.67 -9.32 2.34 -10 2 C-10 1.01 -10 0.02 -10 -1 C-5.68622683 -1.98040299 -3.84459683 -2.00837148 0 0 Z " fill="#9D948C" transform="translate(300,149)"/>
<path d="M0 0 C3 1 3 1 4.125 3.125 C5.12243007 6.40227023 5.6002138 9.60181728 6 13 C5.01 13 4.02 13 3 13 C0.62837691 9.83783588 -1.34406255 6.58786447 -3 3 C-2.34 3 -1.68 3 -1 3 C-0.67 2.01 -0.34 1.02 0 0 Z " fill="#6E6763" transform="translate(299,127)"/>
<path d="M0 0 C1.24926635 0.70962646 2.49931697 1.41787338 3.75 2.125 C4.8225 2.74375 5.895 3.3625 7 4 C6.67 4.66 6.34 5.32 6 6 C3.0625 5.625 3.0625 5.625 0 5 C-0.33 4.34 -0.66 3.68 -1 3 C-3.32156597 2.59270772 -5.6568787 2.25561323 -8 2 C-8 1.01 -8 0.02 -8 -1 C-4.50784604 -2.24719784 -3.14182743 -1.88509646 0 0 Z M7 0 C8 4 8 4 8 4 Z " fill="#83786D" transform="translate(298,143)"/>
<path d="M0 0 C2.1640625 -0.29296875 2.1640625 -0.29296875 4.625 -0.1875 C5.44226563 -0.16042969 6.25953125 -0.13335937 7.1015625 -0.10546875 C8.04128906 -0.05326172 8.04128906 -0.05326172 9 0 C6.08596738 1.94268841 3.14191424 3.46395304 0 5 C-0.04289755 6.93109581 -0.04289755 6.93109581 1 9 C4.48797488 10.79271391 4.48797488 10.79271391 8 12 C7.01 12.495 7.01 12.495 6 13 C-0.4 10.6 -0.4 10.6 -3 8 C-2.64700993 4.55834679 -1.95418308 2.93127462 0 0 Z " fill="#AAAAA2" transform="translate(249,159)"/>
<path d="M0 0 C0.66 0.66 1.32 1.32 2 2 C1.34 2 0.68 2 0 2 C0.66 7.94 1.32 13.88 2 20 C1.34 20 0.68 20 0 20 C-1.64362515 14.35003856 -2.79193559 8.90457857 -2 3 C-1.34 2.01 -0.68 1.02 0 0 Z " fill="#3D2E22" transform="translate(293,110)"/>
<path d="M0 0 C0.99 0.33 1.98 0.66 3 1 C2.01 1.66 1.02 2.32 0 3 C-0.36460453 5.66653905 -0.36460453 5.66653905 -0.1875 8.625 C-0.16042969 9.62789062 -0.13335937 10.63078125 -0.10546875 11.6640625 C-0.07066406 12.43492188 -0.03585937 13.20578125 0 14 C-1.65 14.66 -3.3 15.32 -5 16 C-4.74357696 14.08135229 -4.46926564 12.16509006 -4.1875 10.25 C-4.03667969 9.18265625 -3.88585937 8.1153125 -3.73046875 7.015625 C-2.98679593 3.94548906 -2.07234528 2.33919522 0 0 Z " fill="#3D4856" transform="translate(283,111)"/>
<path d="M0 0 C0 0.66 0 1.32 0 2 C0.66 2 1.32 2 2 2 C2 2.66 2 3.32 2 4 C0.04174127 4.02694851 -1.91662226 4.04637218 -3.875 4.0625 C-4.96554687 4.07410156 -6.05609375 4.08570313 -7.1796875 4.09765625 C-10 4 -10 4 -12 3 C-12 2.34 -12 1.68 -12 1 C-7.93631321 0.22596442 -4.13574827 -0.0984702 0 0 Z " fill="#9CA9BB" transform="translate(288,146)"/>
<path d="M0 0 C4.4062186 1.34634457 6.43077702 3.19374374 9 7 C9 7.66 9 8.32 9 9 C6.1875 8.8125 6.1875 8.8125 3 8 C0.72136847 5.11373339 0 3.6952982 0 0 Z " fill="#AAAAB0" transform="translate(318,151)"/>
<path d="M0 0 C8.18257158 3.52537098 13.75634448 11.47093376 18 19 C17.34 19.33 16.68 19.66 16 20 C15.5153125 19.29875 15.030625 18.5975 14.53125 17.875 C10.5521198 12.24300034 6.49074948 7.19320624 1.46875 2.4609375 C0.9840625 1.97882813 0.499375 1.49671875 0 1 C0 0.67 0 0.34 0 0 Z " fill="#707276" transform="translate(311,140)"/>
<path d="M0 0 C1.32 0.66 2.64 1.32 4 2 C4 2.66 4 3.32 4 4 C5.32 4.33 6.64 4.66 8 5 C7.67 6.65 7.34 8.3 7 10 C5.68 8.68 4.36 7.36 3 6 C2.67 6.66 2.34 7.32 2 8 C0.68 7.67 -0.64 7.34 -2 7 C-1.34 4.69 -0.68 2.38 0 0 Z " fill="#9A8B7D" transform="translate(308,144)"/>
<path d="M0 0 C1.64826111 2.96687001 2.44271087 5.65626525 3 9 C2.01 9.33 1.02 9.66 0 10 C-0.66 9.67 -1.32 9.34 -2 9 C-2 8.34 -2 7.68 -2 7 C-2.66 7 -3.32 7 -4 7 C-3.67 5.02 -3.34 3.04 -3 1 C-2.67 1.66 -2.34 2.32 -2 3 C-1.34 3 -0.68 3 0 3 C0 2.01 0 1.02 0 0 Z " fill="#52463C" transform="translate(295,127)"/>
<path d="M0 0 C0.33 0 0.66 0 1 0 C1.12117188 0.62648437 1.24234375 1.25296875 1.3671875 1.8984375 C1.53476562 2.71570313 1.70234375 3.53296875 1.875 4.375 C2.03742188 5.18710938 2.19984375 5.99921875 2.3671875 6.8359375 C2.86658932 9.18673923 2.86658932 9.18673923 5 11 C5.99 11 6.98 11 8 11 C8 11.66 8 12.32 8 13 C6.35 13.33 4.7 13.66 3 14 C-1.42857143 7.71428571 -1.42857143 7.71428571 -2 4 C-1.34 4 -0.68 4 0 4 C0 2.68 0 1.36 0 0 Z " fill="#5A5F69" transform="translate(288,128)"/>
<path d="M0 0 C3.63 0.33 7.26 0.66 11 1 C11 1.99 11 2.98 11 4 C11.66 4.33 12.32 4.66 13 5 C9.9465865 5.29359745 7.04256578 5.4451258 4 5 C1.4375 2.5 1.4375 2.5 0 0 Z " fill="#C2B8AD" transform="translate(288,152)"/>
<path d="M0 0 C2 1 2 1 2.66796875 2.92578125 C2.83941406 3.71339844 3.01085937 4.50101562 3.1875 5.3125 C3.36667969 6.09238281 3.54585938 6.87226562 3.73046875 7.67578125 C4.01067443 10.09204759 3.74132137 11.70242952 3 14 C2.01 13.67 1.02 13.34 0 13 C0 8.71 0 4.42 0 0 Z " fill="#514B4F" transform="translate(297,115)"/>
<path d="M0 0 C0.66 0 1.32 0 2 0 C2 0.66 2 1.32 2 2 C2.99 2 3.98 2 5 2 C5 3.32 5 4.64 5 6 C2.36 6.33 -0.28 6.66 -3 7 C-2.34 6.01 -1.68 5.02 -1 4 C-0.36707617 1.88719655 -0.36707617 1.88719655 0 0 Z " fill="#57667E" transform="translate(283,120)"/>
<path d="M0 0 C2.1723491 3.25852365 4.07119658 6.59244728 6 10 C4.68 9.67 3.36 9.34 2 9 C2 8.34 2 7.68 2 7 C0.68 7 -0.64 7 -2 7 C-1.34 4.69 -0.68 2.38 0 0 Z " fill="#636E7C" transform="translate(286,133)"/>
<path d="M0 0 C4.95 0.99 4.95 0.99 10 2 C10 2.99 10 3.98 10 5 C6.6875 5.3125 6.6875 5.3125 3 5 C1.0625 2.5 1.0625 2.5 0 0 Z " fill="#868484" transform="translate(287,143)"/>
<path d="M0 0 C2.64 1.98 5.28 3.96 8 6 C7.01 6 6.02 6 5 6 C5 6.33 5 6.66 5 7 C4.67 7.99 4.34 8.98 4 10 C1.2027092 7.93243723 0.97307727 6.85559629 0.3125 3.3125 C0.209375 2.219375 0.10625 1.12625 0 0 Z " fill="#636061" transform="translate(303,133)"/>
<path d="M0 0 C0.99 0 1.98 0 3 0 C3.99 2.31 4.98 4.62 6 7 C4.35 7.33 2.7 7.66 1 8 C0.67 5.36 0.34 2.72 0 0 Z " fill="#A99E94" transform="translate(314,150)"/>
<path d="M0 0 C3.375 0.25 3.375 0.25 7 1 C8.4375 3.0625 8.4375 3.0625 9 5 C8.34 5 7.68 5 7 5 C7 4.34 7 3.68 7 3 C4.69 3 2.38 3 0 3 C0 2.01 0 1.02 0 0 Z " fill="#8891A3" transform="translate(281,143)"/>
<path d="M0 0 C1.32 0 2.64 0 4 0 C3.8864371 1.64666203 3.75882619 3.29236082 3.625 4.9375 C3.52058594 6.31228516 3.52058594 6.31228516 3.4140625 7.71484375 C3.27742188 8.46894531 3.14078125 9.22304687 3 10 C2.01 10.495 2.01 10.495 1 11 C0.67 7.37 0.34 3.74 0 0 Z " fill="#383339" transform="translate(288,111)"/>
<path d="M0 0 C0.556875 0.226875 1.11375 0.45375 1.6875 0.6875 C1.6875 1.3475 1.6875 2.0075 1.6875 2.6875 C-1.68347383 4.18571059 -3.51692119 4.6875 -7.3125 4.6875 C-7.3125 4.0275 -7.3125 3.3675 -7.3125 2.6875 C-3.15982824 -0.42700382 -3.15982824 -0.42700382 0 0 Z " fill="#A9B6CB" transform="translate(279.3125,149.3125)"/>
<path d="M0 0 C-0.99 0.33 -1.98 0.66 -3 1 C-3.33 1.66 -3.66 2.32 -4 3 C-6.475 2.01 -6.475 2.01 -9 1 C-8 -1 -8 -1 -6.1875 -1.75 C-3.50171361 -2.05694702 -2.2747813 -1.38111722 0 0 Z " fill="#757271" transform="translate(298,143)"/>
<path d="M0 0 C0.66 0.33 1.32 0.66 2 1 C2 1.99 2 2.98 2 4 C2.66 4 3.32 4 4 4 C4.33 3.01 4.66 2.02 5 1 C5 1.66 5 2.32 5 3 C5.99 3.33 6.98 3.66 8 4 C8 4.66 8 5.32 8 6 C5.03 5.67 2.06 5.34 -1 5 C-0.67 3.35 -0.34 1.7 0 0 Z " fill="#C2B39C" transform="translate(313,154)"/>
<path d="M0 0 C1.0725 0.165 2.145 0.33 3.25 0.5 C7.03028752 1.08810915 7.03028752 1.08810915 11 1 C11 1.66 11 2.32 11 3 C6.58937864 4.0257259 4.07369424 4.03684712 0 2 C0 1.34 0 0.68 0 0 Z " fill="#AFA7A0" transform="translate(288,150)"/>
<path d="M0 0 C2.33944736 0.28730055 4.6739143 0.61936779 7 1 C7 1.99 7 2.98 7 4 C5.02 4 3.04 4 1 4 C1 3.34 1 2.68 1 2 C0.34 1.67 -0.32 1.34 -1 1 C-0.67 0.67 -0.34 0.34 0 0 Z " fill="#8096AF" transform="translate(274,142)"/>
<path d="M0 0 C2.1875 0.3125 2.1875 0.3125 4 1 C3.01 2.32 2.02 3.64 1 5 C1 4.34 1 3.68 1 3 C0.34 3 -0.32 3 -1 3 C-1.33 3.99 -1.66 4.98 -2 6 C-2.33 5.01 -2.66 4.02 -3 3 C-1.75 1.4375 -1.75 1.4375 0 0 Z " fill="#5F6C80" transform="translate(277,130)"/>
<path d="M0 0 C0.33 0 0.66 0 1 0 C1.33 4.29 1.66 8.58 2 13 C1.34 13 0.68 13 0 13 C-0.83796731 8.34462607 -1.0161692 4.62921525 0 0 Z " fill="#4A3723" transform="translate(293,117)"/>
<path d="M0 0 C3.65316671 1.24976756 4.78065836 1.67098753 7 5 C7.38499891 6.65549531 7.72793135 8.3222433 8 10 C7.34 10 6.68 10 6 10 C5.566875 9.0925 5.13375 8.185 4.6875 7.25 C3.29482729 4.56781551 1.88887243 2.33860395 0 0 Z " fill="#8B888C" transform="translate(306,138)"/>
<path d="M0 0 C2.50298434 2.93828597 3.46930939 5.17902761 4 9 C2.0625 8.3125 2.0625 8.3125 0 7 C-0.93580311 4.12060581 -1.37245106 2.74490212 0 0 Z " fill="#7C7C7F" transform="translate(301,128)"/>
<path d="M0 0 C0.33 0 0.66 0 1 0 C1.103125 0.763125 1.20625 1.52625 1.3125 2.3125 C2.04364039 5.17059424 2.76951913 6.15742885 5 8 C4.67 8.66 4.34 9.32 4 10 C3.01 9.67 2.02 9.34 1 9 C0.67 6.03 0.34 3.06 0 0 Z " fill="#4D4E54" transform="translate(289,128)"/>
<path d="M0 0 C1.5 1.125 1.5 1.125 3 3 C3.1875 6.1875 3.1875 6.1875 3 9 C2.01 9.495 2.01 9.495 1 10 C0.63720544 8.71073008 0.28503302 7.41846728 -0.0625 6.125 C-0.35833984 5.04605469 -0.35833984 5.04605469 -0.66015625 3.9453125 C-1 2 -1 2 0 0 Z " fill="#777261" transform="translate(295,111)"/>
<path d="M0 0 C2.97 0 5.94 0 9 0 C7.515 1.485 7.515 1.485 6 3 C4.68 3 3.36 3 2 3 C2 2.34 2 1.68 2 1 C1.34 0.67 0.68 0.34 0 0 Z " fill="#FCFCF3" transform="translate(282,157)"/>
<path d="M0 0 C1.98 0 3.96 0 6 0 C6 0.66 6 1.32 6 2 C6.66 2 7.32 2 8 2 C8 2.66 8 3.32 8 4 C4.31245243 3.50168276 2.39509338 2.89932357 0 0 Z " fill="#989EA9" transform="translate(282,146)"/>
<path d="M0 0 C1.32 0.66 2.64 1.32 4 2 C3.01 2.33 2.02 2.66 1 3 C1 3.66 1 4.32 1 5 C0.01 4.67 -0.98 4.34 -2 4 C-1.34 2.68 -0.68 1.36 0 0 Z " fill="#637188" transform="translate(271,136)"/>
</svg>
